HIERARCHY
ROOT Hips
{
    OFFSET   0.000000   0.000000   0.000000
    CHANNELS 6 Xposition Yposition Zposition Zrotation Xrotation Yrotation
    JOINT Chest
    {
        OFFSET   0.000000   8.007240   0.000000
        CHANNELS 3 Zrotation Xrotation Yrotation
        JOINT Chest2
        {
            OFFSET   0.000000  22.077100   0.000000
            CHANNELS 3 Zrotation Xrotation Yrotation
            JOINT Neck
            {
                OFFSET   0.000000  23.254800   0.000000
                CHANNELS 3 Zrotation Xrotation Yrotation
                JOINT Head
                {
                    OFFSET   0.000000  14.370000   1.956600
                    CHANNELS 3 Zrotation Xrotation Yrotation
                    End Site
                    {
                        OFFSET   0.000000  19.566000   0.000000
                    }
                }
            }
            JOINT LeftCollar
            {
                OFFSET   3.911900  19.017000  -0.467064
                CHANNELS 3 Zrotation Xrotation Yrotation
                JOINT LeftShoulder
                {
                    OFFSET  10.383700   0.000000   0.000000
                    CHANNELS 3 Zrotation Xrotation Yrotation
                    JOINT LeftElbow
                    {
                        OFFSET  26.662100   0.001476   0.000517
                        CHANNELS 3 Zrotation Xrotation Yrotation
                        JOINT LeftWrist
                        {
                            OFFSET  28.869000  -0.000025  -0.000106
                            CHANNELS 3 Zrotation Xrotation Yrotation
                            JOINT LeftFinger0
                            {
                                OFFSET   2.044660  -2.323460   3.252850
                                CHANNELS 3 Zrotation Xrotation Yrotation
                                JOINT LeftFinger01
                                {
                                    OFFSET   3.088130   0.000000   0.000000
                                    CHANNELS 3 Zrotation Xrotation Yrotation
                                    JOINT LeftFinger02
                                    {
                                        OFFSET   2.639460   0.000000   0.000000
                                        CHANNELS 3 Zrotation Xrotation Yrotation
                                        End Site
                                        {
                                            OFFSET   2.582190   0.000000   0.000000
                                        }
                                    }
                                }
                            }
                            JOINT LeftFinger1
                            {
                                OFFSET   8.364480   0.000000   3.252850
                                CHANNELS 3 Zrotation Xrotation Yrotation
                                JOINT LeftFinger11
                                {
                                    OFFSET   4.646930   0.000000   0.000000
                                    CHANNELS 3 Zrotation Xrotation Yrotation
                                    JOINT LeftFinger12
                                    {
                                        OFFSET   2.323460   0.000000   0.000000
                                        CHANNELS 3 Zrotation Xrotation Yrotation
                                        End Site
                                        {
                                            OFFSET   2.273050   0.000000   0.000000
                                        }
                                    }
                                }
                            }
                            JOINT LeftFinger2
                            {
                                OFFSET   8.364490   0.000015   1.078090
                                CHANNELS 3 Zrotation Xrotation Yrotation
                                JOINT LeftFinger21
                                {
                                    OFFSET   5.111620   0.000000   0.000000
                                    CHANNELS 3 Zrotation Xrotation Yrotation
                                    JOINT LeftFinger22
                                    {
                                        OFFSET   2.788160   0.000016   0.000000
                                        CHANNELS 3 Zrotation Xrotation Yrotation
                                        End Site
                                        {
                                            OFFSET   2.727660   0.000000   0.000000
                                        }
                                    }
                                }
                            }
                            JOINT LeftFinger3
                            {
                                OFFSET   7.899780   0.000017  -1.078090
                                CHANNELS 3 Zrotation Xrotation Yrotation
                                JOINT LeftFinger31
                                {
                                    OFFSET   4.646930   0.000000   0.000000
                                    CHANNELS 3 Zrotation Xrotation Yrotation
                                    JOINT LeftFinger32
                                    {
                                        OFFSET   2.323470   0.000000   0.000000
                                        CHANNELS 3 Zrotation Xrotation Yrotation
                                        End Site
                                        {
                                            OFFSET   2.273050   0.000000   0.000000
                                        }
                                    }
                                }
                            }
                            JOINT LeftFinger4
                            {
                                OFFSET   7.435090   0.000000  -3.252850
                                CHANNELS 3 Zrotation Xrotation Yrotation
                                JOINT LeftFinger41
                                {
                                    OFFSET   3.717550   0.000000   0.000000
                                    CHANNELS 3 Zrotation Xrotation Yrotation
                                    JOINT LeftFinger42
                                    {
                                        OFFSET   1.858770   0.000000   0.000000
                                        CHANNELS 3 Zrotation Xrotation Yrotation
                                        End Site
                                        {
                                            OFFSET   1.818440   0.000000   0.000000
                                        }
                                    }
                                }
                            }
                        }
                    }
                }
            }
            JOINT RightCollar
            {
                OFFSET  -3.911900  19.017000  -0.467063
                CHANNELS 3 Zrotation Xrotation Yrotation
                JOINT RightShoulder
                {
                    OFFSET -10.383700   0.000019   0.000000
                    CHANNELS 3 Zrotation Xrotation Yrotation
                    JOINT RightElbow
                    {
                        OFFSET -26.662100   0.001175   0.000102
                        CHANNELS 3 Zrotation Xrotation Yrotation
                        JOINT RightWrist
                        {
                            OFFSET -28.869000   0.000016  -0.000079
                            CHANNELS 3 Zrotation Xrotation Yrotation
                            JOINT RightFinger0
                            {
                                OFFSET  -2.044660  -2.323490   3.252850
                                CHANNELS 3 Zrotation Xrotation Yrotation
                                JOINT RightFinger01
                                {
                                    OFFSET  -3.088140   0.000000   0.000000
                                    CHANNELS 3 Zrotation Xrotation Yrotation
                                    JOINT RightFinger02
                                    {
                                        OFFSET  -2.639460   0.000000   0.000000
                                        CHANNELS 3 Zrotation Xrotation Yrotation
                                        End Site
                                        {
                                            OFFSET  -2.582190   0.000000   0.000000
                                        }
                                    }
                                }
                            }
                            JOINT RightFinger1
                            {
                                OFFSET  -8.364480   0.000000   3.252850
                                CHANNELS 3 Zrotation Xrotation Yrotation
                                JOINT RightFinger11
                                {
                                    OFFSET  -4.646930   0.000000   0.000000
                                    CHANNELS 3 Zrotation Xrotation Yrotation
                                    JOINT RightFinger12
                                    {
                                        OFFSET  -2.323470   0.000000   0.000000
                                        CHANNELS 3 Zrotation Xrotation Yrotation
                                        End Site
                                        {
                                            OFFSET  -2.273050   0.000000   0.000000
                                        }
                                    }
                                }
                            }
                            JOINT RightFinger2
                            {
                                OFFSET  -8.364480   0.000000   1.078090
                                CHANNELS 3 Zrotation Xrotation Yrotation
                                JOINT RightFinger21
                                {
                                    OFFSET  -5.111620   0.000000   0.000000
                                    CHANNELS 3 Zrotation Xrotation Yrotation
                                    JOINT RightFinger22
                                    {
                                        OFFSET  -2.788160   0.000000   0.000000
                                        CHANNELS 3 Zrotation Xrotation Yrotation
                                        End Site
                                        {
                                            OFFSET  -2.727660   0.000000   0.000000
                                        }
                                    }
                                }
                            }
                            JOINT RightFinger3
                            {
                                OFFSET  -7.899780   0.000000  -1.078090
                                CHANNELS 3 Zrotation Xrotation Yrotation
                                JOINT RightFinger31
                                {
                                    OFFSET  -4.646930   0.000000   0.000000
                                    CHANNELS 3 Zrotation Xrotation Yrotation
                                    JOINT RightFinger32
                                    {
                                        OFFSET  -2.323470   0.000000   0.000000
                                        CHANNELS 3 Zrotation Xrotation Yrotation
                                        End Site
                                        {
                                            OFFSET  -2.273050   0.000000   0.000000
                                        }
                                    }
                                }
                            }
                            JOINT RightFinger4
                            {
                                OFFSET  -7.435090   0.000000  -3.252850
                                CHANNELS 3 Zrotation Xrotation Yrotation
                                JOINT RightFinger41
                                {
                                    OFFSET  -3.717550   0.000000   0.000000
                                    CHANNELS 3 Zrotation Xrotation Yrotation
                                    JOINT RightFinger42
                                    {
                                        OFFSET  -1.858770   0.000000   0.000000
                                        CHANNELS 3 Zrotation Xrotation Yrotation
                                        End Site
                                        {
                                            OFFSET  -1.818440   0.000000   0.000000
                                        }
                                    }
                                }
                            }
                        }
                    }
                }
            }
        }
    }
    JOINT LeftHip
    {
        OFFSET   9.783040   0.000000   0.000000
        CHANNELS 3 Zrotation Xrotation Yrotation
        JOINT LeftKnee
        {
            OFFSET   0.000032 -41.789100  -0.002222
            CHANNELS 3 Zrotation Xrotation Yrotation
            JOINT LeftAnkle
            {
                OFFSET   0.000087 -41.133200  -0.000135
                CHANNELS 3 Zrotation Xrotation Yrotation
                JOINT LeftToe
                {
                    OFFSET   0.000000  -6.358960  14.674500
                    CHANNELS 3 Zrotation Xrotation Yrotation
                    End Site
                    {
                        OFFSET   0.000000   0.000000   3.913200
                    }
                }
            }
        }
    }
    JOINT RightHip
    {
        OFFSET  -9.783040   0.000000   0.000000
        CHANNELS 3 Zrotation Xrotation Yrotation
        JOINT RightKnee
        {
            OFFSET   0.000047 -41.789100  -0.000896
            CHANNELS 3 Zrotation Xrotation Yrotation
            JOINT RightAnkle
            {
                OFFSET  -0.000117 -41.133300  -0.000248
                CHANNELS 3 Zrotation Xrotation Yrotation
                JOINT RightToe
                {
                    OFFSET   0.000000  -6.358970  14.674500
                    CHANNELS 3 Zrotation Xrotation Yrotation
                    End Site
                    {
                        OFFSET   0.000000   0.000000   3.913200
                    }
                }
            }
        }
    }
}
MOTION
Frames: 5
Frame Time:   0.016667
 -0.612045  89.524700   1.867130   0.930856 -16.890100  10.163900   0.412584  13.503600   3.148800   0.037341  27.008800   6.477300   5.491450   0.578142  -0.063584   9.022990   1.139290  -6.923650  -3.579390  -7.498140  -2.345610 -69.081800  20.319200  -3.587860  -3.805790  -7.219270 -19.906600  12.804100  -4.000600  -4.674710  39.187100  27.015400 -60.145200 -26.025600  -0.001044   0.000154  -8.012850   0.001664   0.000277 -29.690200   3.746680  -6.537520 -24.467100   0.003547  -0.000887 -17.126900   0.003707   0.000589 -27.711300  -4.208730   7.958250 -32.025700  -0.004540  -0.001164 -21.329200  -0.001279  -0.001731 -26.899000  -4.591570   8.967200 -28.087800  -0.003310   0.011346 -18.706400  -0.002035   0.002541 -28.667000  -4.867390   8.821350 -43.564200  -0.003870   0.001510 -29.013700  -0.002082   0.002881   5.299450  -7.417210  10.426900  45.224400  -6.819640  51.784000 -27.324800 -14.467300  28.864300  66.396200 -81.363300  60.609900 -46.344900  45.433900  82.407200  32.326700  -0.048356   0.002577  10.995800  -0.023311   0.004581  64.174700   9.499260   4.425440  52.847600  -0.053098  -0.107629  39.473400  -0.073214  -0.046013  80.242100   0.049066  -0.313880  80.065900   0.029834   0.006818  60.100700   0.012955  -0.031165  84.052400  -6.116110  -1.227120  84.108500  -0.058801  -0.030100  63.081300  -0.042634   0.006719  88.066900 -10.036900  -0.360035 110.294000  -0.010206   0.009073  81.222800   0.012643   0.003151   2.367120  17.525100  -1.888200   1.838460   0.882905   1.672660  -3.340860  -1.656480  -7.480380  -0.000000   0.000000  -0.000000   2.968220  19.384900  -5.128320   0.527075   1.053860 -21.205200  -0.707752  -4.499170  -0.598506  -0.000000   0.000000   0.000000
 -0.607772  89.524800   1.867020   0.928369 -16.895900  10.155400   0.420065  13.503900   3.137040   0.056007  27.010000   6.450800   5.479400   0.571364  -0.063331   9.004130   1.126850  -6.897780  -3.596340  -7.518080  -2.344950 -69.045100  20.322800  -3.624420  -3.789090  -7.219470 -19.897800  12.800600  -3.988830  -4.676710  39.204100  27.059600 -60.205400 -26.022800  -0.001097   0.000144  -8.011430   0.001555  -0.000173 -29.700800   3.753790  -6.547520 -24.476400   0.003523  -0.000582 -17.133400   0.003670   0.000553 -27.710600  -4.208930   7.959340 -32.022500  -0.004536  -0.001134 -21.327100  -0.001175  -0.001575 -26.898700  -4.592970   8.969960 -28.087800  -0.003303   0.011466 -18.706400  -0.002035   0.002598 -28.673700  -4.869870   8.823550 -43.574500  -0.003943   0.003180 -29.020600  -0.002145   0.002900   5.313430  -7.419650  10.448500  45.250200  -6.773560  51.777000 -27.302300 -14.605700  29.167100  61.347000 -81.324400  55.191600 -44.587500  46.429400  84.789500  34.414400  -0.053221   0.002186  11.961500  -0.026030   0.004117  56.858500  11.022500   6.880940  47.081000  -0.021842  -0.130763  34.771100  -0.058946  -0.079985  73.618500  -0.593609  -0.859676  73.147600  -0.035537  -0.088178  54.975300  -0.074437  -0.044504  77.934500  -7.446060  -2.328830  78.061100  -0.146356  -0.133470  58.545800  -0.146343   0.010016  81.763000  -9.991320  -1.469220 110.377000  -0.022263   0.018905  78.104800   0.012713   0.013544   2.377240  17.532600  -1.893650   1.827370   0.876212   1.688010  -3.334600  -1.659850  -7.486370   0.000000   0.000000   0.000000   2.970710  19.385000  -5.115380   0.510100   1.055980 -21.212100  -0.689822  -4.499210  -0.598252  -0.000000   0.000000  -0.000000
 -0.606982  89.524900   1.867020   0.925556 -16.900300  10.146500   0.427811  13.504200   3.121640   0.076203  27.011200   6.416580   5.465170   0.567699  -0.063089   8.981010   1.122830  -6.860400  -3.614060  -7.535600  -2.338670 -69.006200  20.332400  -3.663290  -3.775970  -7.211360 -19.886300  12.793600  -3.983120  -4.672730  39.186700  27.032700 -60.170200 -26.040000  -0.001147   0.000147  -8.019990   0.001451   0.007951 -29.710700   3.743680  -6.527950 -24.483600   0.003503  -0.000295 -17.138500   0.003624   0.000540 -27.708500  -4.209130   7.960530 -32.019300  -0.004528  -0.001106 -21.324900  -0.001071  -0.001414 -26.894900  -4.605610   8.994210 -28.083500  -0.003296   0.011584 -18.703600  -0.002037   0.002657 -28.690600  -4.886280   8.845760 -43.602900  -0.004078   0.004861 -29.039500  -0.002203   0.002916   5.333630  -7.413270  10.479600  45.470100  -6.837780  51.767400 -27.074000 -14.670600  29.568800  58.430800 -80.818000  52.188700 -42.986500  47.477000  86.129900  37.492000  -0.033204   0.003098  13.842700  -0.013882   0.005309  45.369200  10.952700  11.302700  38.044100   0.053494  -0.162661  27.692000  -0.019138  -0.125172  66.161800   3.088330   2.145580  65.674200  -0.080161  -0.137369  49.324400  -0.109547  -0.032163  69.540500  -6.113380  -2.070090  69.566000  -0.146022  -0.174560  52.174500  -0.171315   0.001373  70.236100  -9.451690  -3.366670 101.542000  -0.011956  -0.008557  69.489000   0.001988   0.000750   2.381710  17.533500  -1.893190   1.818080   0.879774   1.699250  -3.329580  -1.668320  -7.491700  -0.000000   0.000000  -0.000000   2.970010  19.388800  -5.119300   0.503151   1.050700 -21.210900  -0.679583  -4.495820  -0.589469  -0.000000   0.000000   0.000000
 -0.606445  89.525000   1.867050   0.922573 -16.904300  10.136900   0.435014  13.504500   3.105990   0.095348  27.012300   6.381960   5.451420   0.566569  -0.062849   8.958670   1.122330  -6.821860  -3.627790  -7.550710  -2.331440 -68.968700  20.343900  -3.699800  -3.764420  -7.197350 -19.874500  12.787300  -3.980920  -4.665760  39.168200  27.007600 -60.132300 -26.057100  -0.001193   0.000150  -8.028560   0.001349   0.016076 -29.716800   3.733560  -6.508390 -24.487500   0.003485   0.000000 -17.141200   0.003581   0.000521 -27.705700  -4.209330   7.961790 -32.011900  -0.004518  -0.001076 -21.319900  -0.000967  -0.001248 -26.891500  -4.616120   9.017190 -28.071600  -0.003290   0.011699 -18.695700  -0.002038   0.002715 -28.701800  -4.900020   8.867010 -43.622900  -0.004204   0.006589 -29.052900  -0.002257   0.002931   5.356020  -7.406950  10.508100  45.743200  -6.957170  51.744100 -26.785700 -14.725900  29.991600  56.282600 -80.111700  50.057300 -42.042300  48.386900  86.707100  41.082200  -0.004498   0.004009  16.366800  -0.001735   0.006501  34.539000  10.775500  15.515400  29.521200   0.107510  -0.181686  21.028300   0.021363  -0.153303  58.477100   6.747250   5.180530  58.487000  -0.102786  -0.157722  43.858200  -0.120157  -0.014505  61.601500  -3.766720  -1.507690  61.527600  -0.143688  -0.186758  46.145700  -0.174883  -0.016320  60.265300  -8.741260  -4.945700  92.101900   0.002965  -0.049314  61.062200  -0.022167  -0.017782   2.383460  17.534400  -1.892190   1.813140   0.883337   1.707980  -3.324900  -1.674050  -7.494750  -0.000000   0.000000  -0.000000   2.967290  19.392500  -5.123500   0.499243   1.045440 -21.207700  -0.673124  -4.492450  -0.575410   0.000000   0.000000   0.000000
 -0.604760  89.525000   1.867120   0.918787 -16.907700  10.124700   0.440983  13.504800   3.092580   0.111370  27.013400   6.352460   5.441580   0.566236  -0.062600   8.943100   1.124720  -6.786640  -3.633020  -7.561700  -2.329640 -68.938200  20.353500  -3.729050  -3.755180  -7.184550 -19.865100  12.785000  -3.998830  -4.659370  39.172700  27.013500 -60.131300 -26.048800  -0.001231   0.000146  -8.024430   0.001246   0.015983 -29.709400   3.733720  -6.510500 -24.481500   0.003465   0.000332 -17.137000   0.003552   0.000461 -27.702200  -4.209520   7.963030 -31.990400  -0.004507  -0.001044 -21.305600  -0.000863  -0.001079 -26.887100  -4.616070   9.020550 -28.049600  -0.003284   0.011813 -18.681000  -0.002039   0.002772 -28.701200  -4.901190   8.869740 -43.622400  -0.004319   0.008313 -29.052600  -0.002309   0.002946   5.384960  -7.417200  10.523000  45.986300  -7.112090  51.708800 -26.394300 -14.848400  30.475100  54.949700 -79.263500  48.753200 -41.271000  48.732800  85.444300  45.476100   0.008345  -0.021868  20.225800  -0.002585  -0.022522  30.162900  10.668000  17.459600  26.067300   0.106013  -0.147212  18.195200   0.038754  -0.128390  52.630500   6.531030   4.930910  52.857100  -0.024337  -0.070206  39.563900  -0.027185  -0.005576  57.611500  -1.044740  -0.543374  57.535900  -0.079552  -0.170362  43.151900  -0.132894  -0.043874  57.630900  -8.430010  -5.317100  91.396400   0.011115  -0.075030  58.265100  -0.065167  -0.027942   2.380080  17.540400  -1.890610   1.813280   0.875149   1.713960  -3.319790  -1.670270  -7.490840   0.000000   0.000000   0.000000   2.961110  19.390800  -5.123760   0.499421   1.055750 -21.203100  -0.669317  -4.495960  -0.561384  -0.000000   0.000000   0.000000
